<svg width="13" height="12" viewBox="0 0 13 12" fill="none" xmlns="http://www.w3.org/2000/svg">
<path d="M6.49853 2.26697L6.14459 1.91305L5.60954 1.37804L5.60953 1.37803C4.44066 0.209162 2.54553 0.209161 1.37666 1.37803L6.49853 2.26697ZM6.49853 2.26697L6.85207 1.91266M6.49853 2.26697L6.85207 1.91266M6.85207 1.91266L7.38504 1.37852C7.38516 1.3784 7.38528 1.37828 7.3854 1.37816C7.38541 1.37815 7.38541 1.37814 7.38542 1.37813C8.55682 0.20716 10.4527 0.207289 11.6239 1.37852L11.9774 1.02497L11.6239 1.37852C12.7922 2.54682 12.7917 4.4361 11.6244 5.61049C11.6242 5.61064 11.624 5.6108 11.6239 5.61096L6.49878 10.733L1.37666 5.61089L1.37665 5.61088M6.85207 1.91266L1.37665 5.61088M1.37665 5.61088C0.207786 4.44205 0.207778 2.54691 1.37666 1.37803L1.37665 5.61088Z" fill="#FF7D1F" stroke="#FF7D1F"/>
</svg>
