<svg width="12" height="12" viewBox="0 0 12 12" fill="none" xmlns="http://www.w3.org/2000/svg">
<path d="M0.157276 0.290326L0.219668 0.219668C0.490036 -0.050692 0.915458 -0.0714895 1.20968 0.157276L1.28033 0.219668L6 4.93875L10.7197 0.219668C11.0126 -0.073222 11.4875 -0.073222 11.7803 0.219668C12.0732 0.512566 12.0732 0.987436 11.7803 1.28033L7.06125 6L11.7803 10.7197C12.0507 10.9901 12.0715 11.4155 11.8427 11.7097L11.7803 11.7803C11.51 12.0507 11.0846 12.0715 10.7903 11.8427L10.7197 11.7803L6 7.06125L1.28033 11.7803C0.987436 12.0732 0.512566 12.0732 0.219668 11.7803C-0.073222 11.4875 -0.073222 11.0126 0.219668 10.7197L4.93875 6L0.219668 1.28033C-0.050692 1.00997 -0.0714895 0.584543 0.157276 0.290326L0.219668 0.219668L0.157276 0.290326Z" fill="white"/>
</svg>
