<svg width="14" height="14" viewBox="0 0 14 14" fill="none" xmlns="http://www.w3.org/2000/svg">
<path d="M7 0C10.866 0 14 3.134 14 7C14 10.866 10.866 14 7 14C3.134 14 0 10.866 0 7C0 3.134 3.134 0 7 0ZM9.47121 4.52877L9.41234 4.47793C9.22964 4.34238 8.9789 4.34071 8.79452 4.47292L8.72879 4.52877L7 6.2573L5.27123 4.52877L5.21235 4.47793C5.02965 4.34238 4.77891 4.34071 4.59453 4.47292L4.52877 4.52877L4.47793 4.58765C4.34238 4.77035 4.34071 5.02109 4.47292 5.20547L4.52877 5.27123L6.2573 7L4.52877 8.72879L4.47793 8.78766C4.34238 8.97036 4.34071 9.2211 4.47292 9.40548L4.52877 9.47121L4.58765 9.52203C4.77035 9.65762 5.02109 9.6593 5.20547 9.52707L5.27123 9.47121L7 7.7427L8.72879 9.47121L8.78766 9.52203C8.97036 9.65762 9.2211 9.6593 9.40548 9.52707L9.47121 9.47121L9.52203 9.41234C9.65762 9.22964 9.6593 8.9789 9.52707 8.79452L9.47121 8.72879L7.7427 7L9.47121 5.27123L9.52203 5.21235C9.65762 5.02965 9.6593 4.77891 9.52707 4.59453L9.47121 4.52877Z" fill="#FF7D1F"/>
</svg>
