<svg width="17" height="17" viewBox="0 0 17 17" fill="none" xmlns="http://www.w3.org/2000/svg">
<path d="M8.5 0C13.1944 0 17 3.80558 17 8.5C17 13.1944 13.1944 17 8.5 17C3.80558 17 0 13.1944 0 8.5C0 3.80558 3.80558 0 8.5 0ZM11.5008 5.49922L11.4293 5.43749C11.2074 5.27289 10.903 5.27086 10.6791 5.4314L10.5992 5.49922L8.5 7.59815L6.40078 5.49922L6.32928 5.43749C6.10744 5.27289 5.80296 5.27086 5.57908 5.4314L5.49922 5.49922L5.43749 5.57072C5.27289 5.79256 5.27086 6.09704 5.4314 6.32092L5.49922 6.40078L7.59815 8.5L5.49922 10.5992L5.43749 10.6707C5.27289 10.8926 5.27086 11.1971 5.4314 11.4209L5.49922 11.5008L5.57072 11.5625C5.79256 11.7271 6.09704 11.7291 6.32092 11.5686L6.40078 11.5008L8.5 9.40185L10.5992 11.5008L10.6707 11.5625C10.8926 11.7271 11.1971 11.7291 11.4209 11.5686L11.5008 11.5008L11.5625 11.4293C11.7271 11.2074 11.7291 10.903 11.5686 10.6791L11.5008 10.5992L9.40185 8.5L11.5008 6.40078L11.5625 6.32928C11.7271 6.10744 11.7291 5.80296 11.5686 5.57908L11.5008 5.49922Z" fill="#FF7D1F"/>
</svg>
