<svg width="7" height="7" viewBox="0 0 7 7" fill="none" xmlns="http://www.w3.org/2000/svg">
<path d="M0.085223 0.169357L0.119032 0.12814C0.265536 -0.0295703 0.49606 -0.0417022 0.655488 0.0917441L0.693775 0.12814L3.25123 2.88094L5.80868 0.12814C5.96738 -0.0427129 6.22471 -0.0427129 6.38342 0.12814C6.54212 0.298997 6.54212 0.576004 6.38342 0.746861L3.82629 3.5L6.38342 6.25315C6.52992 6.41086 6.54118 6.65901 6.41723 6.83065L6.38342 6.87186C6.23691 7.02958 6.0064 7.0417 5.84696 6.90826L5.80868 6.87186L3.25123 4.11906L0.693775 6.87186C0.535062 7.0427 0.277744 7.0427 0.119032 6.87186C-0.0396769 6.70101 -0.0396769 6.42399 0.119032 6.25315L2.67617 3.5L0.119032 0.746861C-0.0274685 0.589147 -0.0387381 0.340984 0.085223 0.169357Z" fill="#696969"/>
</svg>
