<svg width="30" height="33" viewBox="0 0 30 33" fill="none" xmlns="http://www.w3.org/2000/svg">
<path d="M25.8301 11.6602C26.3927 11.6602 26.9369 11.5805 27.4517 11.4318C27.4816 11.7839 27.4967 12.1402 27.4967 12.5V19.1642L29.8606 24.431C29.9521 24.6348 29.9994 24.8558 29.9994 25.0793C29.9994 25.9538 29.2906 26.6626 28.4161 26.6626H1.58373C1.36074 26.6626 1.14029 26.6157 0.936778 26.5245C0.138661 26.1672 -0.218706 25.2305 0.138594 24.4323L2.49676 19.1648L2.49693 12.4785L2.50429 12.0619C2.73608 5.34407 8.25655 0 14.9967 0C17.4022 0 19.6492 0.679517 21.5559 1.85707C20.5884 2.89825 19.9967 4.29343 19.9967 5.82682C19.9967 9.04848 22.6084 11.6602 25.8301 11.6602ZM19.9272 28.3318C19.5294 30.6953 17.4734 32.496 14.9967 32.496C12.5201 32.496 10.464 30.6953 10.0663 28.3318H19.9272ZM25.8301 9.99348C28.1312 9.99348 29.9967 8.128 29.9967 5.82682C29.9967 3.52563 28.1312 1.66015 25.8301 1.66015C23.5289 1.66015 21.6634 3.52563 21.6634 5.82682C21.6634 8.128 23.5289 9.99348 25.8301 9.99348Z" fill="#D9D9D9"/>
</svg>
