<svg width="18" height="18" viewBox="0 0 18 18" fill="none" xmlns="http://www.w3.org/2000/svg">
<path d="M3.625 5.06184V5.0625V12.9406C3.625 14.563 4.94015 15.8781 6.56248 15.8781C6.56249 15.8781 6.56249 15.8781 6.5625 15.8781L11.9638 15.8783C11.8041 15.9582 11.6238 16.0031 11.4333 16.0031H6.5625C4.87113 16.0031 3.5 14.6321 3.5 12.9406V5.0625C3.5 4.87125 3.54525 4.6904 3.6257 4.53018L3.625 5.06184ZM13.3125 2C13.9683 2 14.5 2.53167 14.5 3.1875V12.9375C14.5 13.5933 13.9683 14.125 13.3125 14.125H6.5625C5.90667 14.125 5.375 13.5933 5.375 12.9375V3.1875C5.375 2.53166 5.90666 2 6.5625 2H13.3125Z" fill="white" stroke="#A3A3A3"/>
</svg>
