<svg width="20" height="20" viewBox="0 0 20 20" fill="none" xmlns="http://www.w3.org/2000/svg">
<path d="M0.262126 0.483876L0.366113 0.366113C0.816726 -0.0844867 1.52576 -0.119149 2.01613 0.262126L2.13389 0.366113L10 8.23125L17.8661 0.366113C18.3543 -0.122037 19.1458 -0.122037 19.6339 0.366113C20.122 0.854276 20.122 1.64573 19.6339 2.13389L11.7688 10L19.6339 17.8661C20.0845 18.3168 20.1191 19.0258 19.7379 19.5161L19.6339 19.6339C19.1833 20.0845 18.4743 20.1191 17.9839 19.7379L17.8661 19.6339L10 11.7688L2.13389 19.6339C1.64573 20.122 0.854276 20.122 0.366113 19.6339C-0.122037 19.1458 -0.122037 18.3543 0.366113 17.8661L8.23125 10L0.366113 2.13389C-0.0844867 1.68328 -0.119149 0.974239 0.262126 0.483876Z" fill="#A3A3A3"/>
</svg>
