<svg width="20" height="18" viewBox="0 0 20 18" fill="none" xmlns="http://www.w3.org/2000/svg">
<path d="M1 15.4286H19C19.5523 15.4286 20 16.0042 20 16.7143C20 17.3736 19.614 17.9171 19.1166 17.9914L19 18H1C0.44772 18 0 17.4244 0 16.7143C0 16.055 0.38604 15.5115 0.88338 15.4372L1 15.4286ZM0.99988 7.71429L18.9999 7.71146C19.5522 7.71146 20 8.28694 20 8.99704C20 9.65636 19.6141 10.2 19.1167 10.2743L19.0001 10.2829L1.00012 10.2857C0.44784 10.2858 0 9.71023 0 9.00013C0 8.34081 0.38594 7.79734 0.88326 7.7229L0.99988 7.71429ZM1 0L19 0C19.5523 0 20 0.57564 20 1.28571C20 1.94508 19.614 2.48851 19.1166 2.56278L19 2.57143H1C0.44772 2.57143 0 1.99579 0 1.28571C0 0.626349 0.38604 0.0829158 0.88338 0.00865296L1 0Z" fill="#A3A3A3"/>
</svg>
