<svg width="29" height="29" viewBox="0 0 29 29" fill="none" xmlns="http://www.w3.org/2000/svg">
<path d="M14.5 0C22.5081 0 29 6.49187 29 14.5C29 22.5081 22.5081 29 14.5 29C6.49187 29 0 22.5081 0 14.5C0 6.49187 6.49187 0 14.5 0ZM14.5 7.25C13.9494 7.25 13.4944 7.65912 13.4224 8.18993L13.4125 8.3375V13.4125H8.3375C7.7369 13.4125 7.25 13.8994 7.25 14.5C7.25 15.0506 7.65912 15.5056 8.18993 15.5776L8.3375 15.5875H13.4125V20.6625C13.4125 21.2631 13.8994 21.75 14.5 21.75C15.0506 21.75 15.5056 21.3408 15.5776 20.8101L15.5875 20.6625V15.5875H20.6625C21.2631 15.5875 21.75 15.1006 21.75 14.5C21.75 13.9494 21.3408 13.4944 20.8101 13.4224L20.6625 13.4125H15.5875V8.3375C15.5875 7.73689 15.1006 7.25 14.5 7.25Z" fill="#D9D9D9"/>
</svg>
