<svg width="16" height="17" viewBox="0 0 16 17" fill="none" xmlns="http://www.w3.org/2000/svg">
<mask id="path-1-inside-1_50_72" fill="white">
<path d="M13.0918 0C14.6979 0 16 1.26799 16 2.83213C16 4.39626 14.6979 5.66424 13.0918 5.66424C12.2748 5.66424 11.5365 5.33621 11.0082 4.80802L5.71474 7.75493C5.78104 7.99232 5.81642 8.24218 5.81642 8.49998C5.81642 8.75786 5.78104 9.00763 5.71474 9.24502L11.009 12.1913C11.5372 11.6635 12.2752 11.3358 13.0918 11.3358C14.6979 11.3358 16 12.6037 16 14.1679C16 15.732 14.6979 17 13.0918 17C11.4856 17 10.1835 15.732 10.1835 14.1679C10.1835 13.9101 10.2189 13.6602 10.2853 13.4228L4.9917 10.4759C4.46342 11.004 3.72515 11.3321 2.90821 11.3321C1.30205 11.3321 0 10.0641 0 8.49998C0 6.93583 1.30205 5.66788 2.90821 5.66788C3.72479 5.66788 4.46276 5.99562 4.99099 6.5234L10.2853 3.57718C10.2189 3.33978 10.1835 3.08998 10.1835 2.83213C10.1835 1.26799 11.4856 0 13.0918 0Z"/>
</mask>
<path d="M13.0918 0C14.6979 0 16 1.26799 16 2.83213C16 4.39626 14.6979 5.66424 13.0918 5.66424C12.2748 5.66424 11.5365 5.33621 11.0082 4.80802L5.71474 7.75493C5.78104 7.99232 5.81642 8.24218 5.81642 8.49998C5.81642 8.75786 5.78104 9.00763 5.71474 9.24502L11.009 12.1913C11.5372 11.6635 12.2752 11.3358 13.0918 11.3358C14.6979 11.3358 16 12.6037 16 14.1679C16 15.732 14.6979 17 13.0918 17C11.4856 17 10.1835 15.732 10.1835 14.1679C10.1835 13.9101 10.2189 13.6602 10.2853 13.4228L4.9917 10.4759C4.46342 11.004 3.72515 11.3321 2.90821 11.3321C1.30205 11.3321 0 10.0641 0 8.49998C0 6.93583 1.30205 5.66788 2.90821 5.66788C3.72479 5.66788 4.46276 5.99562 4.99099 6.5234L10.2853 3.57718C10.2189 3.33978 10.1835 3.08998 10.1835 2.83213C10.1835 1.26799 11.4856 0 13.0918 0Z" fill="white" stroke="#A3A3A3" stroke-width="4" mask="url(#path-1-inside-1_50_72)"/>
</svg>
