<svg width="20" height="20" viewBox="0 0 20 20" fill="none" xmlns="http://www.w3.org/2000/svg">
<path d="M4.0835 5.62442V5.62508V14.3786C4.0835 16.1505 5.5199 17.5869 7.29181 17.5869C7.29182 17.5869 7.29182 17.5869 7.29183 17.5869L13.4944 17.5871C13.2706 17.7446 12.9978 17.8369 12.7038 17.8369H7.29183C5.38184 17.8369 3.8335 16.2886 3.8335 14.3786V5.62508C3.8335 5.3303 3.92633 5.05688 4.08454 4.83277L4.0835 5.62442ZM14.7918 2.16675C15.5512 2.16675 16.1668 2.78236 16.1668 3.54175V14.3751C16.1668 15.1344 15.5512 15.7501 14.7918 15.7501H7.29183C6.53244 15.7501 5.91683 15.1344 5.91683 14.3751V3.54175C5.91683 2.78236 6.53244 2.16675 7.29183 2.16675H14.7918Z" fill="white" stroke="#A3A3A3"/>
</svg>
