<svg width="current" height="current" viewBox="0 0 13 12" fill="none" xmlns="http://www.w3.org/2000/svg">
<g id="Vector">
<mask id="path-1-inside-1_104_6490" fill="white">
<path d="M7.03148 1.02497L6.49813 1.55949L5.96308 1.02448C4.59895 -0.339654 2.38724 -0.339654 1.0231 1.02448C-0.341035 2.38862 -0.341035 4.60035 1.0231 5.96444L6.15415 11.0955C6.3445 11.2858 6.65306 11.2858 6.84341 11.0955L11.9784 5.96353C13.3395 4.59482 13.3419 2.38935 11.9774 1.02497C10.6108 -0.341655 8.39811 -0.341655 7.03148 1.02497Z"/>
</mask>
<path d="M7.03148 1.02497L6.49813 1.55949L5.96308 1.02448C4.59895 -0.339654 2.38724 -0.339654 1.0231 1.02448C-0.341035 2.38862 -0.341035 4.60035 1.0231 5.96444L6.15415 11.0955C6.3445 11.2858 6.65306 11.2858 6.84341 11.0955L11.9784 5.96353C13.3395 4.59482 13.3419 2.38935 11.9774 1.02497C10.6108 -0.341655 8.39811 -0.341655 7.03148 1.02497Z" stroke="#4B4B4B" stroke-width="2" mask="url(#path-1-inside-1_104_6490)"/>
</g>
</svg>
