<svg width="current" height="current" viewBox="0 0 20 17" fill="none" xmlns="http://www.w3.org/2000/svg">
<path d="M9.4713 2.89383L9.99771 3.41139L10.5235 2.89324L11.3435 2.08525C11.3436 2.08518 11.3436 2.0851 11.3437 2.08503C13.1544 0.304917 16.0904 0.304991 17.901 2.08525L18.4268 1.55046L17.901 2.08525C19.6999 3.85396 19.6991 6.70883 17.9019 8.48678C17.9016 8.48707 17.9013 8.48736 17.901 8.48766L10.0026 16.2491L10.0025 16.2493C10.0024 16.2493 10.0024 16.2494 10.0023 16.2494C10.0018 16.2496 10.0003 16.25 9.99812 16.25C9.99705 16.25 9.99615 16.2499 9.99545 16.2498C9.99472 16.2497 9.9942 16.2495 9.99392 16.2494C9.99387 16.2494 9.99382 16.2493 9.99375 16.2493L2.09984 8.48757L2.09983 8.48756C0.300062 6.718 0.300047 3.85415 2.09984 2.08451C3.90668 0.307945 6.8413 0.307945 8.64814 2.08451L8.64816 2.08453L9.4713 2.89383Z" stroke="#A3A3A3" stroke-width="1.5"/>
</svg>
