<svg width="24" height="24" viewBox="0 0 24 24" fill="none" xmlns="http://www.w3.org/2000/svg">
<path d="M0.305814 0.564522L0.427132 0.427132C0.952847 -0.0985678 1.78006 -0.139007 2.35215 0.305814L2.48954 0.427132L11.6667 9.60313L20.8438 0.427132C21.4133 -0.142376 22.3367 -0.142376 22.9062 0.427132C23.4757 0.996655 23.4757 1.92001 22.9062 2.48954L13.7302 11.6667L22.9062 20.8438C23.4319 21.3695 23.4723 22.1967 23.0275 22.7688L22.9062 22.9062C22.3805 23.4319 21.5533 23.4723 20.9812 23.0275L20.8438 22.9062L11.6667 13.7302L2.48954 22.9062C1.92001 23.4757 0.996655 23.4757 0.427132 22.9062C-0.142376 22.3367 -0.142376 21.4133 0.427132 20.8438L9.60313 11.6667L0.427132 2.48954C-0.0985678 1.96382 -0.139007 1.13661 0.305814 0.564522Z" fill="#A3A3A3"/>
</svg>
