<svg width="14" height="14" viewBox="0 0 14 14" fill="none" xmlns="http://www.w3.org/2000/svg">
<path d="M7 0C10.866 0 14 3.134 14 7C14 10.866 10.866 14 7 14C3.134 14 0 10.866 0 7C0 3.134 3.134 0 7 0ZM7 3.5C6.73421 3.5 6.51455 3.6975 6.47976 3.95376L6.475 4.025V6.475H4.025C3.73505 6.475 3.5 6.71006 3.5 7C3.5 7.26579 3.6975 7.48545 3.95376 7.52024L4.025 7.525H6.475V9.975C6.475 10.2649 6.71006 10.5 7 10.5C7.26579 10.5 7.48545 10.3025 7.52024 10.0463L7.525 9.975V7.525H9.975C10.2649 7.525 10.5 7.28994 10.5 7C10.5 6.73421 10.3025 6.51455 10.0463 6.47976L9.975 6.475H7.525V4.025C7.525 3.73505 7.28994 3.5 7 3.5Z" fill="#939393"/>
</svg>
