<svg width="18" height="18" viewBox="0 0 18 18" fill="none" xmlns="http://www.w3.org/2000/svg">
<path d="M9 0C13.9705 0 18 4.02943 18 9C18 13.9705 13.9705 18 9 18C4.02943 18 0 13.9705 0 9C0 4.02943 4.02943 0 9 0ZM9 4.5C8.65827 4.5 8.37585 4.75393 8.33112 5.08341L8.325 5.175V8.325H5.175C4.80221 8.325 4.5 8.62722 4.5 9C4.5 9.34173 4.75393 9.62415 5.08341 9.66888L5.175 9.675H8.325V12.825C8.325 13.1978 8.62722 13.5 9 13.5C9.34173 13.5 9.62415 13.246 9.66888 12.9166L9.675 12.825V9.675H12.825C13.1978 9.675 13.5 9.37278 13.5 9C13.5 8.65827 13.246 8.37585 12.9166 8.33112L12.825 8.325H9.675V5.175C9.675 4.80221 9.37278 4.5 9 4.5Z" fill="#939393"/>
</svg>
