<svg width="30" height="34" viewBox="0 0 30 34" fill="none" xmlns="http://www.w3.org/2000/svg">
<path d="M24.7738 24.7739L22.7955 26.7304C21.3375 28.1614 19.4455 30.0014 17.1191 32.2505C15.6653 33.6562 13.359 33.656 11.9055 32.2502L6.08696 26.5904C5.3557 25.8724 4.74358 25.2669 4.25051 24.7739C-1.41684 19.1065 -1.41684 9.91786 4.25051 4.25051C9.91786 -1.41684 19.1065 -1.41684 24.7738 4.25051C30.4411 9.91786 30.4411 19.1065 24.7738 24.7739ZM18.6791 14.97C18.6791 12.6686 16.8135 10.803 14.5121 10.803C12.2108 10.803 10.3452 12.6686 10.3452 14.97C10.3452 17.2714 12.2108 19.137 14.5121 19.137C16.8135 19.137 18.6791 17.2714 18.6791 14.97Z" fill="#6D6D6D"/>
</svg>
