<svg width="15" height="15" viewBox="0 0 15 15" fill="none" xmlns="http://www.w3.org/2000/svg">
<path d="M7.5 0C11.6421 0 15 3.35786 15 7.5C15 11.6421 11.6421 15 7.5 15C3.35786 15 0 11.6421 0 7.5C0 3.35786 3.35786 0 7.5 0ZM4.3125 6.9375C4.00184 6.9375 3.75 7.18935 3.75 7.5C3.75 7.78477 3.96161 8.02012 4.23617 8.0574L4.3125 8.0625C8.40802 8.0625 6.9399 8.0625 10.6875 8.0625C10.9981 8.0625 11.25 7.81065 11.25 7.5C11.25 7.21522 11.0384 6.97987 10.7639 6.9426L10.6875 6.9375C6.79155 6.9375 8.58262 6.9375 4.3125 6.9375Z" fill="#FF7D1F"/>
</svg>
