<svg width="17" height="17" viewBox="0 0 17 17" fill="none" xmlns="http://www.w3.org/2000/svg">
<path d="M8.5 0C13.1944 0 17 3.80558 17 8.5C17 13.1944 13.1944 17 8.5 17C3.80558 17 0 13.1944 0 8.5C0 3.80558 3.80558 0 8.5 0ZM8.5 4.25C8.17726 4.25 7.91052 4.48983 7.86828 4.801L7.8625 4.8875V7.8625H4.8875C4.53542 7.8625 4.25 8.14793 4.25 8.5C4.25 8.82275 4.48983 9.08948 4.801 9.13172L4.8875 9.1375H7.8625V12.1125C7.8625 12.4646 8.14793 12.75 8.5 12.75C8.82275 12.75 9.08948 12.5101 9.13172 12.199L9.1375 12.1125V9.1375H12.1125C12.4646 9.1375 12.75 8.85207 12.75 8.5C12.75 8.17726 12.5101 7.91052 12.199 7.86828L12.1125 7.8625H9.1375V4.8875C9.1375 4.53542 8.85207 4.25 8.5 4.25Z" fill="#FF7D1F"/>
</svg>
