<svg width="20" height="25" viewBox="0 0 20 25" fill="none" xmlns="http://www.w3.org/2000/svg">
<path d="M17.1889 14.9968C18.7415 14.9968 20 16.2556 20 17.8085V18.9567C20 19.6735 19.776 20.3724 19.3592 20.9556C17.4269 23.6601 14.2714 25 9.99592 25C5.71955 25 2.56575 23.6596 0.637984 20.9536C0.223008 20.3712 0 19.6738 0 18.9585V17.8085C0 16.2556 1.2586 14.9968 2.81118 14.9968H17.1889ZM9.99592 0C13.4478 0 16.2461 2.79873 16.2461 6.25112C16.2461 9.70352 13.4478 12.5023 9.99592 12.5023C6.544 12.5023 3.7457 9.70352 3.7457 6.25112C3.7457 2.79873 6.544 0 9.99592 0Z" fill="#FF7D1F"/>
</svg>
