<svg width="16" height="17" viewBox="0 0 16 17" fill="none" xmlns="http://www.w3.org/2000/svg">
<path d="M11.7153 4.10086L11.3748 3.76045L11.2484 3.30801C11.2062 3.15727 11.1835 2.998 11.1835 2.83213C11.1835 1.84511 12.0127 1 13.0918 1C14.1708 1 15 1.84511 15 2.83213C15 3.81914 14.1708 4.66424 13.0918 4.66424C12.5467 4.66424 12.0609 4.44637 11.7153 4.10086ZM4.28419 7.23081L4.62526 7.57159L4.7516 8.02393C4.7937 8.17468 4.81642 8.33407 4.81642 8.49998C4.81642 8.66596 4.79371 8.82525 4.7516 8.97602L4.62532 9.42813L4.28468 9.7687C3.93907 10.1142 3.45318 10.3321 2.90821 10.3321C1.82918 10.3321 1 9.48702 1 8.49998C1 7.51295 1.82916 6.66788 2.90821 6.66788C3.45297 6.66788 3.93864 6.88556 4.28419 7.23081ZM11.2484 13.692L11.3749 13.2394L11.7159 12.8987C12.0613 12.5535 12.547 12.3358 13.0918 12.3358C14.1709 12.3358 15 13.1809 15 14.1679C15 15.1549 14.1708 16 13.0918 16C12.0127 16 11.1835 15.1549 11.1835 14.1679C11.1835 14.002 11.2062 13.8427 11.2484 13.692Z" fill="white" stroke="#A3A3A3" stroke-width="2"/>
</svg>
