<svg width="27" height="34" viewBox="0 0 27 34" fill="none" xmlns="http://www.w3.org/2000/svg">
<path d="M22.9178 19.9922C24.9878 19.9922 26.6658 21.6702 26.6658 23.7404V25.271C26.6658 26.2267 26.3671 27.1584 25.8115 27.9359C23.2351 31.5412 19.028 33.3274 13.3275 33.3274C7.62582 33.3274 3.42088 31.5405 0.850617 27.9332C0.297334 27.1567 0 26.227 0 25.2735V23.7404C0 21.6702 1.67808 19.9922 3.74812 19.9922H22.9178ZM13.3275 0C17.9298 0 21.6608 3.73097 21.6608 8.33333C21.6608 12.9357 17.9298 16.6667 13.3275 16.6667C8.72505 16.6667 4.9941 12.9357 4.9941 8.33333C4.9941 3.73097 8.72505 0 13.3275 0Z" fill="#D9D9D9"/>
</svg>
