<svg width="21" height="21" viewBox="0 0 21 21" fill="none" xmlns="http://www.w3.org/2000/svg">
<path d="M10.4167 0C16.1696 0 20.8333 4.6637 20.8333 10.4167C20.8333 16.1696 16.1696 20.8333 10.4167 20.8333C4.6637 20.8333 0 16.1696 0 10.4167C0 4.6637 4.6637 0 10.4167 0ZM14.0941 6.73924L14.0065 6.66359C13.7346 6.46187 13.3615 6.45939 13.0871 6.65613L12.9893 6.73924L10.4167 9.31146L7.84409 6.73924L7.75647 6.66359C7.4846 6.46187 7.11147 6.45939 6.8371 6.65613L6.73924 6.73924L6.66359 6.82686C6.46187 7.09873 6.45939 7.47186 6.65613 7.74623L6.73924 7.84409L9.31146 10.4167L6.73924 12.9893L6.66359 13.0769C6.46187 13.3487 6.45939 13.7219 6.65613 13.9963L6.73924 14.0941L6.82686 14.1697C7.09873 14.3715 7.47186 14.374 7.74623 14.1772L7.84409 14.0941L10.4167 11.5219L12.9893 14.0941L13.0769 14.1697C13.3487 14.3715 13.7219 14.374 13.9963 14.1772L14.0941 14.0941L14.1697 14.0065C14.3715 13.7346 14.374 13.3615 14.1772 13.0871L14.0941 12.9893L11.5219 10.4167L14.0941 7.84409L14.1697 7.75647C14.3715 7.4846 14.374 7.11147 14.1772 6.8371L14.0941 6.73924Z" fill="#797979"/>
</svg>
