<svg width="25" height="25" viewBox="0 0 25 25" fill="none" xmlns="http://www.w3.org/2000/svg">
<path d="M13.4167 4.78144V11.1833L13.4172 11.7094L21.1688 11.7083L19.3746 9.91276C19.0973 9.63536 19.0721 9.20133 19.2991 8.89551L19.3748 8.80791C19.6522 8.5306 20.0861 8.50545 20.392 8.73244L20.4796 8.8081L23.601 11.9306C23.8781 12.2078 23.9035 12.6413 23.6771 12.9472L23.6016 13.0348L20.4801 16.1633C20.1754 16.4688 19.6807 16.4694 19.3753 16.1647C19.0976 15.8876 19.0719 15.4536 19.2984 15.1475L19.3741 15.0598L21.1583 13.2708L13.4172 13.2719L13.4167 20.2979C13.4167 20.7837 12.9779 21.1518 12.4996 21.0673L3.64536 19.5034C3.27209 19.4375 3 19.1131 3 18.734V6.23543C3 5.85282 3.27709 5.5265 3.65466 5.4645L12.5089 4.01051C12.9845 3.93241 13.4167 4.29943 13.4167 4.78144ZM9.77307 12.225C9.19654 12.225 8.72917 12.6924 8.72917 13.2689C8.72917 13.8455 9.19654 14.3128 9.77307 14.3128C10.3496 14.3128 10.817 13.8455 10.817 13.2689C10.817 12.6924 10.3496 12.225 9.77307 12.225ZM14.4583 19.518L15.2554 19.5182L15.3615 19.511C15.7432 19.4592 16.0373 19.1317 16.0367 18.7356L16.0292 14.3083H14.4583V19.518ZM14.4604 10.6625L14.4583 9.33474V5.45417L15.2347 5.45418C15.6297 5.45418 15.9564 5.74743 16.0086 6.12825L16.0159 6.23414L16.0229 10.6625H14.4604Z" fill="#FF7D1F"/>
</svg>
