<svg width="28" height="28" viewBox="0 0 28 28" fill="none" xmlns="http://www.w3.org/2000/svg">
<path d="M14 15.375H13.4V15.6473L13.6049 15.8265L14 15.375ZM14.6 11C14.6 10.6686 14.3314 10.4 14 10.4C13.6686 10.4 13.4 10.6686 13.4 11H14.6ZM16.6049 18.4515C16.8543 18.6698 17.2333 18.6445 17.4515 18.3951C17.6698 18.1457 17.6445 17.7667 17.3951 17.5485L16.6049 18.4515ZM26.4 14C26.4 20.8483 20.8483 26.4 14 26.4V27.6C21.5111 27.6 27.6 21.5111 27.6 14H26.4ZM14 26.4C7.15167 26.4 1.6 20.8483 1.6 14H0.4C0.4 21.5111 6.48893 27.6 14 27.6V26.4ZM1.6 14C1.6 7.15167 7.15167 1.6 14 1.6V0.4C6.48893 0.4 0.4 6.48893 0.4 14H1.6ZM14 1.6C20.8483 1.6 26.4 7.15167 26.4 14H27.6C27.6 6.48893 21.5111 0.4 14 0.4V1.6ZM21.4 14C21.4 18.0869 18.0869 21.4 14 21.4V22.6C18.7496 22.6 22.6 18.7496 22.6 14H21.4ZM14 21.4C9.91309 21.4 6.6 18.0869 6.6 14H5.4C5.4 18.7496 9.25035 22.6 14 22.6V21.4ZM6.6 14C6.6 9.91309 9.91309 6.6 14 6.6V5.4C9.25035 5.4 5.4 9.25035 5.4 14H6.6ZM14 6.6C18.0869 6.6 21.4 9.91309 21.4 14H22.6C22.6 9.25035 18.7496 5.4 14 5.4V6.6ZM14.6 15.375V11H13.4V15.375H14.6ZM13.6049 15.8265L16.6049 18.4515L17.3951 17.5485L14.3951 14.9235L13.6049 15.8265Z" fill="#939393"/>
</svg>
