<svg width="23" height="29" viewBox="0 0 23 29" fill="none" xmlns="http://www.w3.org/2000/svg">
<path d="M15.8125 3.26636C15.8125 2.46572 16.4561 1.81669 17.25 1.81669C18.0439 1.81669 18.6875 2.46572 18.6875 3.26636V13.049C18.6875 13.4493 19.0094 13.7738 19.4062 13.7738C19.8031 13.7738 20.125 13.4493 20.125 13.049V5.7987C20.125 4.99806 20.7686 4.34901 21.5625 4.34901C22.3564 4.34901 23 4.99806 23 5.7987V18.4932C23 21.6526 21.3204 25.0303 20.2486 26.8852C19.4491 28.2686 17.9772 29 16.4786 29H13.3621C11.5923 29 9.97434 27.9914 9.18311 26.3948L8.99139 26.0081C8.38665 24.7878 7.63248 23.6488 6.74655 22.618L3.56707 18.9181L0.416214 16.4468C0.153597 16.2407 0 15.924 0 15.5885C0 14.8857 0.37247 14.3637 0.850382 14.0524C1.27605 13.775 1.78484 13.6565 2.23334 13.6027C3.14784 13.4933 4.2601 13.6052 5.2367 13.7963C5.97488 13.9409 6.63701 14.2226 7.1875 14.5277V3.26636C7.1875 2.46572 7.83108 1.81669 8.625 1.81669C9.41892 1.81669 10.0625 2.46572 10.0625 3.26636V12.3269C10.0625 12.7271 10.3844 13.0516 10.7812 13.0516C11.1781 13.0516 11.5 12.7271 11.5 12.3269V1.44967C11.5 0.649034 12.1436 0 12.9375 0C13.7314 0 14.375 0.649034 14.375 1.44967V12.3269C14.375 12.7271 14.6969 13.0516 15.0938 13.0516C15.4906 13.0516 15.8125 12.7271 15.8125 12.3269V3.26636Z" fill="#FF7D1F" fill-opacity="0.8"/>
</svg>
