<svg width="24" height="24" viewBox="0 0 24 24" fill="none" xmlns="http://www.w3.org/2000/svg">
<path d="M12 0C12.6154 0 13.1226 0.463248 13.192 1.06006L13.2 1.2L13.2004 2.77676C17.3771 3.315 20.6857 6.62399 21.2234 10.8008L22.8 10.8C23.4628 10.8 24 11.3372 24 12C24 12.6154 23.5368 13.1226 22.9399 13.192L22.8 13.2L21.2232 13.2004C20.685 17.3766 17.3766 20.685 13.2004 21.2232L13.2 22.8C13.2 23.4628 12.6628 24 12 24C11.3846 24 10.8774 23.5368 10.808 22.9399L10.8 22.8L10.8008 21.2234C6.62399 20.6857 3.315 17.3771 2.77676 13.2004L1.2 13.2C0.537264 13.2 0 12.6628 0 12C0 11.3846 0.463248 10.8774 1.06006 10.808L1.2 10.8L2.77661 10.8008C3.31436 6.62358 6.62358 3.31436 10.8008 2.77661L10.8 1.2C10.8 0.537264 11.3372 0 12 0ZM12 5.1C8.18923 5.1 5.1 8.18923 5.1 12C5.1 15.8107 8.18923 18.9 12 18.9C15.8107 18.9 18.9 15.8107 18.9 12C18.9 8.18923 15.8107 5.1 12 5.1ZM12 7.2C14.6509 7.2 16.8 9.34903 16.8 12C16.8 14.6509 14.6509 16.8 12 16.8C9.34903 16.8 7.2 14.6509 7.2 12C7.2 9.34903 9.34903 7.2 12 7.2Z" fill="white"/>
</svg>
