<svg width="24" height="24" viewBox="0 0 24 24" fill="none" xmlns="http://www.w3.org/2000/svg">
<path d="M8.1 11.875C9.94428 11.875 11.4896 13.2085 11.8957 15.0004L23.1 15C23.597 15 24 15.4198 24 15.9375C24 16.4121 23.6614 16.8044 23.2222 16.8665L23.1 16.875L11.8955 16.8759C11.4889 18.6671 9.94392 20 8.1 20C6.25614 20 4.71113 18.6671 4.30454 16.8759L0.9 16.875C0.402948 16.875 0 16.4552 0 15.9375C0 15.4629 0.33858 15.0706 0.777876 15.0085L0.9 15L4.30426 15.0004C4.71041 13.2085 6.25571 11.875 8.1 11.875ZM15.9 0C17.7443 0 19.2896 1.33353 19.6957 3.12542L23.1 3.125C23.597 3.125 24 3.54474 24 4.0625C24 4.53713 23.6614 4.92936 23.2222 4.99144L23.1 5L19.6955 5.00082C19.2889 6.7921 17.7439 8.125 15.9 8.125C14.0561 8.125 12.5111 6.7921 12.1045 5.00082L0.9 5C0.402948 5 0 4.58026 0 4.0625C0 3.58787 0.33858 3.19564 0.777876 3.13356L0.9 3.125L12.1043 3.12542C12.5104 1.33353 14.0557 0 15.9 0Z" fill="white"/>
</svg>
