<svg width="31" height="36" viewBox="0 0 31 36" fill="none" xmlns="http://www.w3.org/2000/svg">
<path d="M26.4602 26.7788L24.3472 28.8936C22.7899 30.4404 20.7691 32.4294 18.2844 34.8605C16.7316 36.38 14.2683 36.3798 12.7159 34.8602L6.50131 28.7423C5.72026 27.9662 5.06648 27.3117 4.53985 26.7788C-1.51328 20.6528 -1.51328 10.7205 4.53985 4.5945C10.593 -1.5315 20.4071 -1.5315 26.4602 4.5945C32.5133 10.7205 32.5133 20.6528 26.4602 26.7788ZM19.9506 16.1815C19.9506 13.6939 17.958 11.6773 15.5 11.6773C13.042 11.6773 11.0494 13.6939 11.0494 16.1815C11.0494 18.6691 13.042 20.6858 15.5 20.6858C17.958 20.6858 19.9506 18.6691 19.9506 16.1815Z" fill="#FF7D1F" fill-opacity="0.8"/>
</svg>
